<?xml version="1.0" encoding="UTF-8"?>
<svg fill="#E6E6EA" xmlns="http://www.w3.org/2000/svg" id="svg3039" width="16" height="16" version="1.1"><defs><linearGradient id="cg0" x1="0" y1="0" x2="0" y2="1"><stop offset="0" stop-color="#9B9C9D"/><stop offset="1" stop-color="#6D6E70"/></linearGradient><linearGradient id="cg1" x1="0" y1="0" x2="0" y2="1"><stop offset="0" stop-color="#8485A9"/><stop offset="1" stop-color="#4F507F"/></linearGradient></defs>
 <g id="layer1">
  <path id="path4086" d="m2 0v16h1v-16z" fill="url(#cg0)"/>
  <path id="path4088" d="m13 0v16h1v-16z" fill="url(#cg0)"/>
  <path id="path4090" d="m15.999 2h-16l5.7783e-4 1 15.999 1e-7z" fill="url(#cg0)"/>
  <path id="path4092" d="m16 13h-16l5.7783e-4 1h15.999z" fill="url(#cg0)"/>
  <path id="path5151" d="m6 14v2h1v-2z" fill="url(#cg0)"/>
  <path id="path5153" d="m9 14v2h1v-2z" fill="url(#cg0)"/>
  <path id="path5155" d="m6 0v2h1v-2z" fill="url(#cg0)"/>
  <path id="path5157" d="m9 0v2h1v-2z" fill="url(#cg0)"/>
  <path id="path5159" d="m16 9h-2v1h2z" fill="url(#cg0)"/>
  <path id="path5161" d="m16 6h-2v1h2z" fill="url(#cg0)"/>
  <path id="path5163" d="m2 6h-2v1h2z" fill="url(#cg0)"/>
  <path id="path5165" d="m2 9h-2v1h2z" fill="url(#cg0)"/>
  <path id="path5311" d="m7 13h1v-10h-1z" fill="url(#cg1)"/>
  <path id="path5315" d="m3 7v1h10v-1z" fill="url(#cg1)"/>
 </g>
</svg>
