<?xml version="1.0" encoding="UTF-8"?>
<svg fill="#2A2A2C" xmlns="http://www.w3.org/2000/svg" id="svg3039" width="16" height="16" version="1.1"><defs><linearGradient id="cg0" x1="0" y1="0" x2="0" y2="1"><stop offset="0" stop-color="#B8B8B8"/><stop offset="1" stop-color="#939393"/></linearGradient></defs>
 <g id="layer1">
  <path id="path12171" transform="matrix(1 0 0 -1 .24091 16.157)" d="m1.2591 14.157c-0.5 0-0.5 1 0 1 2 0 4.2094-1.2094 5-2 2-2 2-7.5 4-9.5 0.79057-0.79057 2-1.5 4-1.5 0.5 0 0.5-1 0-1-2 0-4.2094 1.2094-5 2-2 2-2 7.5-4 9.5-0.79057 0.79057-2 1.5-4 1.5z" fill="url(#cg0)" fill-rule="evenodd" stroke="#48484B" stroke-linecap="round" stroke-linejoin="round"/>
 </g>
</svg>
