<?xml version="1.0" encoding="UTF-8"?>
<svg fill="#2A2A2C" xmlns="http://www.w3.org/2000/svg" id="svg3039" width="16" height="16" version="1.1"><defs><linearGradient id="cg0" x1="0" y1="0" x2="0" y2="1"><stop offset="0" stop-color="#E9ACA6"/><stop offset="1" stop-color="#D3847C"/></linearGradient></defs>
 <g id="layer1">
  <path id="path5336" d="m3 13h10v-10h-10z" fill="url(#cg0)" fill-opacity=".12444"/>
  <path id="path4086" d="m2 0v16h1v-16z" fill="#5E5E62"/>
  <path id="path4088" d="m13 0v16h1v-16z" fill="#5E5E62"/>
  <path id="path4090" d="m15.999 2h-16l5.7783e-4 1 15.999 1e-7z" fill="#5E5E62"/>
  <path id="path4092" d="m16 13h-16l5.7783e-4 1h15.999z" fill="#5E5E62"/>
  <path id="path5151" d="m6 14v2h1v-2z" fill="#5E5E62"/>
  <path id="path5153" d="m9 14v2h1v-2z" fill="#5E5E62"/>
  <path id="path5155" d="m6 0v2h1v-2z" fill="#5E5E62"/>
  <path id="path5157" d="m9 0v2h1v-2z" fill="#5E5E62"/>
  <path id="path5159" d="m16 9h-2v1h2z" fill="#5E5E62"/>
  <path id="path5161" d="m16 6h-2v1h2z" fill="#5E5E62"/>
  <path id="path5163" d="m2 6h-2v1h2z" fill="#5E5E62"/>
  <path id="path5165" d="m2 9h-2v1h2z" fill="#5E5E62"/>
  <path id="path5346" d="m5.5 5.5h5" fill="none" stroke="#48484B" stroke-linecap="round"/>
  <path id="path5348" d="m5.5 7.5h5" fill="none" stroke="#48484B" stroke-linecap="round"/>
  <path id="path5352" d="m5.5 9.5h5" fill="none" stroke="#48484B" stroke-linecap="round"/>
 </g>
</svg>
